<?xml version="1.0" encoding="UTF-8" standalone="no"?>
<!-- Created with Inkscape (http://www.inkscape.org/) -->

<svg
   xmlns:dc="http://purl.org/dc/elements/1.1/"
   xmlns:cc="http://creativecommons.org/ns#"
   xmlns:rdf="http://www.w3.org/1999/02/22-rdf-syntax-ns#"
   xmlns:svg="http://www.w3.org/2000/svg"
   xmlns="http://www.w3.org/2000/svg"
   xmlns:sodipodi="http://sodipodi.sourceforge.net/DTD/sodipodi-0.dtd"
   xmlns:inkscape="http://www.inkscape.org/namespaces/inkscape"
   width="357.48621"
   height="377.73749"
   id="svg2"
   version="1.1"
   inkscape:version="0.48.4 r9939"
   sodipodi:docname="pie-xkcd.svg"
   inkscape:export-filename="/home/ziosi/Dropbox/Research/PhD_Mapelli/Presentations/PresentationsPrivate/FinalWorkshops/2014-11-28-FinalWorkshop/Presentation/images/graphics/pie-xkdc.png"
   inkscape:export-xdpi="90"
   inkscape:export-ydpi="90">
  <defs
     id="defs4" />
  <sodipodi:namedview
     id="base"
     pagecolor="#ffffff"
     bordercolor="#666666"
     borderopacity="1.0"
     inkscape:pageopacity="0.0"
     inkscape:pageshadow="2"
     inkscape:zoom="0.98994949"
     inkscape:cx="29.86278"
     inkscape:cy="238.95175"
     inkscape:document-units="px"
     inkscape:current-layer="g3893"
     showgrid="false"
     showguides="true"
     inkscape:guide-bbox="true"
     inkscape:window-width="1440"
     inkscape:window-height="880"
     inkscape:window-x="-2"
     inkscape:window-y="-3"
     inkscape:window-maximized="1"
     fit-margin-top="0"
     fit-margin-left="0"
     fit-margin-right="0"
     fit-margin-bottom="0" />
  <metadata
     id="metadata7">
    <rdf:RDF>
      <cc:Work
         rdf:about="">
        <dc:format>image/svg+xml</dc:format>
        <dc:type
           rdf:resource="http://purl.org/dc/dcmitype/StillImage" />
        <dc:title />
      </cc:Work>
    </rdf:RDF>
  </metadata>
  <g
     inkscape:label="Layer 1"
     inkscape:groupmode="layer"
     id="layer1"
     transform="translate(19.944448,-297.26162)"
     style="display:inline">
    <g
       id="g3893"
       transform="matrix(3.6974179,0,0,3.6974179,-1006.3423,-1776.3735)"
       style="stroke-width:0.0540918;stroke-miterlimit:4;stroke-dasharray:none">
      <path
         sodipodi:type="arc"
         style="fill:none;stroke:#000000;stroke-width:5.5;stroke-linecap:round;stroke-linejoin:round;stroke-miterlimit:4;stroke-opacity:1;stroke-dasharray:none;stroke-dashoffset:0;display:inline"
         id="path2985"
         sodipodi:cx="269.71072"
         sodipodi:cy="380.61075"
         sodipodi:rx="186.87822"
         sodipodi:ry="186.87822"
         d="m 456.58894,380.61075 c 0,103.20999 -83.66823,186.87822 -186.87822,186.87822 -32.80398,0 -65.03003,-8.63495 -93.43911,-25.03694 l 93.43911,-161.84128 z"
         sodipodi:start="0"
         sodipodi:end="2.0943951"
         transform="matrix(-0.17422036,0.10058617,0.10058617,0.17422036,332.55626,508.24923)" />
      <path
         transform="matrix(0.17422035,0.10058616,0.10058616,-0.17422035,240.03834,638.33157)"
         sodipodi:type="arc"
         style="fill:none;stroke:#000000;stroke-width:5.5;stroke-linecap:round;stroke-linejoin:round;stroke-miterlimit:4;stroke-opacity:1;stroke-dasharray:none;stroke-dashoffset:0;display:inline"
         id="path2985-3"
         sodipodi:cx="269.71072"
         sodipodi:cy="380.61075"
         sodipodi:rx="186.87822"
         sodipodi:ry="186.87822"
         d="m 456.58894,380.61075 c 0,103.20999 -83.66823,186.87822 -186.87822,186.87822 -32.80398,0 -65.03003,-8.63495 -93.43911,-25.03694 l 93.43911,-161.84128 z"
         sodipodi:start="0"
         sodipodi:end="2.0943951" />
      <path
         transform="matrix(1.0170874e-8,-0.20117234,-0.20117234,-1.0170874e-8,398.7452,653.24057)"
         sodipodi:type="arc"
         style="fill:none;stroke:#000000;stroke-width:5.5;stroke-linecap:round;stroke-linejoin:round;stroke-miterlimit:4;stroke-opacity:1;stroke-dasharray:none;stroke-dashoffset:0;display:inline"
         id="path2985-1"
         sodipodi:cx="269.71072"
         sodipodi:cy="380.61075"
         sodipodi:rx="186.87822"
         sodipodi:ry="186.87822"
         d="m 456.58894,380.61075 c 0,103.20999 -83.66823,186.87822 -186.87822,186.87822 -32.80398,0 -65.03003,-8.63495 -93.43911,-25.03694 l 93.43911,-161.84128 z"
         sodipodi:start="0"
         sodipodi:end="2.0943951" />
      <text
         xml:space="preserve"
         style="font-size:8.04689407px;font-style:normal;font-weight:normal;text-align:center;line-height:125%;letter-spacing:0px;word-spacing:0px;text-anchor:middle;fill:#000000;fill-opacity:1;stroke:none;display:inline;font-family:Sans"
         x="681.90387"
         y="-3.163919"
         id="text3792"
         sodipodi:linespacing="125%"
         transform="matrix(0.50000001,0.8660254,-0.8660254,0.50000001,0,0)"><tspan
           sodipodi:role="line"
           id="tspan3794"
           x="681.90387"
           y="-3.163919"
           style="font-size:7.04103184px">Gravitational</tspan><tspan
           sodipodi:role="line"
           x="681.90387"
           y="5.6373711"
           id="tspan3796"
           style="font-size:7.04103184px">Waves</tspan></text>
      <text
         xml:space="preserve"
         style="font-size:8.04689312px;font-style:normal;font-weight:normal;text-align:center;line-height:125%;letter-spacing:0px;word-spacing:0px;text-anchor:middle;fill:#000000;fill-opacity:1;stroke:none;display:inline;font-family:Sans"
         x="-357.54959"
         y="559.4649"
         id="text3792-3"
         sodipodi:linespacing="125%"
         transform="matrix(0.5,-0.8660254,0.8660254,0.5,0,0)"><tspan
           sodipodi:role="line"
           x="-357.54959"
           y="559.4649"
           id="tspan3796-6"
           style="font-size:7.04103136px">Dynamics</tspan></text>
      <text
         xml:space="preserve"
         style="font-size:8.04689407px;font-style:normal;font-weight:normal;text-align:center;line-height:125%;letter-spacing:0px;word-spacing:0px;text-anchor:middle;fill:#000000;fill-opacity:1;stroke:none;display:inline;font-family:Sans"
         x="325.966"
         y="622.76447"
         id="text3792-9"
         sodipodi:linespacing="125%"><tspan
           sodipodi:role="line"
           x="327.08679"
           y="622.76447"
           id="tspan3796-7"
           style="font-size:7.04103184px">Stellar </tspan><tspan
           sodipodi:role="line"
           x="325.966"
           y="631.56573"
           style="font-size:7.04103184px"
           id="tspan3837">evolution</tspan></text>
      <g
         transform="matrix(0.20117233,0,0,0.20117233,222.57684,496.38069)"
         id="g3897"
         style="stroke:#000000;stroke-width:4.17750025;stroke-miterlimit:4;stroke-opacity:1;stroke-dasharray:none;display:inline">
        <path
           sodipodi:nodetypes="ssssssssssssssssss"
           transform="translate(64.402728,163.88257)"
           inkscape:connector-curvature="0"
           id="path3879"
           d="m 194.28571,469.65098 c -4.50141,2.53174 -9.96046,3.4802 -13.92857,6.78572 -4.31749,3.59656 -7.95311,8.33825 -10,13.57143 -1.17805,3.01187 -1.26842,6.41479 -1.07143,9.64285 0.28318,4.64033 1.3442,9.31519 3.21429,13.57143 1.79309,4.08099 4.23644,8.03518 7.5,11.07143 2.61625,2.43403 5.87193,4.30104 9.28571,5.35714 2.96571,0.91748 6.20804,1.1206 9.28572,0.71429 4.2554,-0.56179 8.41572,-2.15676 12.14286,-4.28571 3.37507,-1.92785 6.30005,-4.63669 8.92857,-7.5 2.65795,-2.89537 5.32403,-5.99439 6.78571,-9.64286 1.79074,-4.46981 2.25963,-9.47196 2.14286,-14.28572 -0.0736,-3.03424 -0.84949,-6.04145 -1.78572,-8.92857 -0.96949,-2.98968 -2.16591,-5.96928 -3.92857,-8.57143 -1.9362,-2.85833 -4.36695,-5.44736 -7.14285,-7.5 -2.35442,-1.74098 -4.9818,-3.37483 -7.85715,-3.92857 -2.81532,-0.54218 -5.85653,-0.20726 -8.57143,0.71429 -1.8762,0.63686 -3.27306,2.24299 -5,3.21428 z"
           style="fill:none;stroke:#000000;stroke-width:4.17750025;stroke-linecap:round;stroke-linejoin:miter;stroke-miterlimit:4;stroke-opacity:1;stroke-dasharray:none" />
        <path
           transform="translate(64.402728,163.88257)"
           inkscape:connector-curvature="0"
           id="path3881"
           d="m 198.57143,530.36527 3.57143,44.28571"
           style="fill:none;stroke:#000000;stroke-width:4.17750025;stroke-linecap:round;stroke-linejoin:miter;stroke-miterlimit:4;stroke-opacity:1;stroke-dasharray:none" />
        <path
           transform="translate(64.402728,163.88257)"
           inkscape:connector-curvature="0"
           id="path3883"
           d="m 186.07143,662.15098 7.85714,-39.28571 7.85714,-52.14286"
           style="fill:none;stroke:#000000;stroke-width:4.17750025;stroke-linecap:round;stroke-linejoin:miter;stroke-miterlimit:4;stroke-opacity:1;stroke-dasharray:none" />
        <path
           sodipodi:nodetypes="cccc"
           transform="translate(64.402728,163.88257)"
           inkscape:connector-curvature="0"
           id="path3885"
           d="m 228.57143,662.15098 -11.42857,-45.35714 -7.85715,-20 -7.54147,-25.32557"
           style="fill:none;stroke:#000000;stroke-width:4.17750025;stroke-linecap:round;stroke-linejoin:miter;stroke-miterlimit:4;stroke-opacity:1;stroke-dasharray:none" />
        <path
           sodipodi:nodetypes="caccaacacac"
           transform="translate(64.402728,163.88257)"
           inkscape:connector-curvature="0"
           id="path3887"
           d="m 171.07143,494.29384 c 0,0 -4.012,1.80363 -3.92857,3.57143 0.0842,1.78373 4.28571,3.21429 4.28571,3.21429 0,0 -15,28.21428 -13.92857,31.07142 1.78571,2.14286 27.74323,4.59322 41.07143,1.42858 11.09285,-2.63388 20.51279,-10.10549 30,-16.42858 6.97736,-4.65031 19.64286,-12.49999 19.64286,-15.71428 0.35714,-2.14286 -6.1432,-9.10549 -10.35715,-12.5 -3.02693,-2.43832 -10.35714,-5.35714 -10.35714,-5.35714 0,0 1.20418,-4.03854 0,-5.35715 -0.8867,-0.97097 -3.92857,-0.35714 -3.92857,-0.35714"
           style="fill:none;stroke:#000000;stroke-width:4.17750025;stroke-linecap:butt;stroke-linejoin:miter;stroke-miterlimit:4;stroke-opacity:1;stroke-dasharray:none" />
      </g>
      <path
         sodipodi:nodetypes="csssc"
         inkscape:connector-curvature="0"
         id="path3889"
         d="m 280.99581,614.89818 c 0,0 1.54367,-1.6082 2.52367,-1.52749 0.81363,0.067 1.78083,0.78131 1.85954,1.5939 0.117,1.20787 -1.87156,1.70538 -2.25802,2.85573 -0.33847,1.00749 0.0664,3.18779 0.0664,3.18779"
         style="fill:none;stroke:#000000;stroke-width:0.84039742;stroke-linecap:round;stroke-linejoin:miter;stroke-miterlimit:4;stroke-opacity:1;stroke-dasharray:none" />
      <path
         transform="matrix(0.21085829,0,0,0.21085829,216.29794,519.89944)"
         d="m 320.44643,486.21347 c 0,1.30675 -1.01935,2.36607 -2.27678,2.36607 -1.25744,0 -2.27679,-1.05932 -2.27679,-2.36607 0,-1.30674 1.01935,-2.36607 2.27679,-2.36607 1.25743,0 2.27678,1.05933 2.27678,2.36607 z"
         sodipodi:ry="2.3660715"
         sodipodi:rx="2.2767856"
         sodipodi:cy="486.21347"
         sodipodi:cx="318.16965"
         id="path3891"
         style="fill:#000000;fill-opacity:1;stroke:#000000;stroke-width:0.19081283;stroke-linecap:round;stroke-miterlimit:4;stroke-opacity:1;stroke-dasharray:none;stroke-dashoffset:0"
         sodipodi:type="arc" />
      <path
         style="fill:none;stroke:#ff0000;stroke-width:1.26738572;stroke-linecap:round;stroke-linejoin:miter;stroke-miterlimit:4;stroke-opacity:1;stroke-dasharray:none"
         d="m 358.42956,644.26184 c 0,0 0.94994,-10.01129 -0.57478,-14.65684 -2.34483,-7.14429 -8.87455,-13.97862 -14.36945,-19.11137 -4.4546,-4.16101 -16.81226,-9.48384 -16.81226,-9.48384"
         id="path3934"
         inkscape:connector-curvature="0"
         sodipodi:nodetypes="cssc" />
      <path
         style="fill:none;stroke:#ff0000;stroke-width:1.26738584;stroke-linecap:round;stroke-linejoin:miter;stroke-miterlimit:4;stroke-opacity:1;stroke-dasharray:none"
         d="m 328.40542,606.42466 c 0,0 -2.66516,-5.10146 -2.51717,-5.53483 0.14653,-0.53809 5.41644,-2.17047 5.41644,-2.17047"
         id="path3936"
         inkscape:connector-curvature="0"
         sodipodi:nodetypes="ccc" />
      <g
         id="g3970"
         transform="matrix(0.7438182,0,0,0.7438182,68.345799,169.84239)">
        <path
           inkscape:connector-curvature="0"
           id="path3940"
           d="m 330.1669,650.25613 1.07024,-10.70241 2.38746,4.19864 2.46979,-4.28097 1.5642,10.86706"
           style="fill:none;stroke:#000000;stroke-width:1.23058856;stroke-linecap:round;stroke-linejoin:round;stroke-miterlimit:4;stroke-opacity:1;stroke-dasharray:none" />
        <path
           inkscape:connector-curvature="0"
           id="path3942"
           d="m 338.39952,639.71837 3.37537,4.93957 2.96375,-4.85724 -6.42145,10.29077"
           style="fill:none;stroke:#000000;stroke-width:1.23058856;stroke-linecap:round;stroke-linejoin:round;stroke-miterlimit:4;stroke-opacity:1;stroke-dasharray:none" />
        <path
           inkscape:connector-curvature="0"
           id="path3944"
           d="m 349.26658,639.63605 3.78701,10.45543 1.81117,-5.84516 1.89351,5.59818 2.96374,-10.20845"
           style="fill:none;stroke:#000000;stroke-width:1.23058856;stroke-linecap:round;stroke-linejoin:round;stroke-miterlimit:4;stroke-opacity:1;stroke-dasharray:none" />
        <path
           sodipodi:nodetypes="zzzzz"
           inkscape:connector-curvature="0"
           id="path3946"
           d="m 366.39044,639.8007 c -2.0943,-0.0815 -3.69458,2.77093 -3.78701,4.85725 -0.0924,2.08632 1.36341,5.24744 3.4577,5.3512 2.09429,0.10376 3.77653,-2.75493 3.86933,-4.85725 0.0928,-2.10232 -1.44573,-5.26972 -3.54002,-5.3512 z"
           style="fill:none;stroke:#000000;stroke-width:1.23058856;stroke-linecap:round;stroke-linejoin:round;stroke-miterlimit:4;stroke-opacity:1;stroke-dasharray:none" />
        <path
           sodipodi:nodetypes="cczcc"
           inkscape:connector-curvature="0"
           id="path3948"
           d="m 372.81188,649.92682 0,-9.96147 c 0,0 4.73343,0.85716 4.6926,2.63444 -0.0408,1.77729 -4.28097,3.37538 -4.28097,3.37538 l 4.03399,3.95166"
           style="fill:none;stroke:#000000;stroke-width:1.23058856;stroke-linecap:round;stroke-linejoin:round;stroke-miterlimit:4;stroke-opacity:1;stroke-dasharray:none" />
        <path
           inkscape:connector-curvature="0"
           id="path3950"
           d="m 381.86776,639.96535 0.16466,9.96147"
           style="fill:none;stroke:#000000;stroke-width:1.23058856;stroke-linecap:round;stroke-linejoin:round;stroke-miterlimit:4;stroke-opacity:1;stroke-dasharray:none" />
        <path
           sodipodi:nodetypes="ccc"
           inkscape:connector-curvature="0"
           id="path3952"
           d="m 386.39571,640.29466 -4.44562,4.61026 5.43353,4.85725"
           style="fill:none;stroke:#000000;stroke-width:1.23058856;stroke-linecap:round;stroke-linejoin:round;stroke-miterlimit:4;stroke-opacity:1;stroke-dasharray:none" />
      </g>
      <path
         sodipodi:type="arc"
         style="fill:#ff0000;fill-opacity:1;stroke:#ff0000;stroke-width:4.55000019;stroke-linecap:round;stroke-linejoin:round;stroke-miterlimit:4;stroke-opacity:1;stroke-dasharray:none;stroke-dashoffset:0"
         id="path3980"
         sodipodi:cx="281.07495"
         sodipodi:cy="194.6129"
         sodipodi:rx="3.2829957"
         sodipodi:ry="3.2829957"
         d="m 284.35795,194.6129 c 0,1.81315 -1.46985,3.283 -3.283,3.283 -1.81315,0 -3.28299,-1.46985 -3.28299,-3.283 0,-1.81315 1.46984,-3.283 3.28299,-3.283 1.81315,0 3.283,1.46985 3.283,3.283 z"
         transform="matrix(0.20117233,0,0,0.20117233,267.32723,560.70916)" />
    </g>
  </g>
  <g
     inkscape:groupmode="layer"
     id="layer2"
     inkscape:label="gw"
     style="display:none"
     transform="translate(84.347176,-133.37904)">
    <path
       sodipodi:end="2.0943951"
       sodipodi:start="0"
       d="m 456.58894,380.61075 c 0,103.20999 -83.66823,186.87822 -186.87822,186.87822 -32.80398,0 -65.03003,-8.63495 -93.43911,-25.03694 l 93.43911,-161.84128 z"
       sodipodi:ry="186.87822"
       sodipodi:rx="186.87822"
       sodipodi:cy="380.61075"
       sodipodi:cx="269.71072"
       id="path3035"
       style="opacity:0.65;fill:#ffffff;fill-opacity:1;stroke:#ffffff;stroke-width:5.5;stroke-linecap:round;stroke-linejoin:round;stroke-miterlimit:4;stroke-opacity:1;stroke-dasharray:none;stroke-dashoffset:0"
       sodipodi:type="arc"
       transform="matrix(0,-0.99999999,-0.99999999,0,570.23896,459.36048)" />
  </g>
  <g
     inkscape:groupmode="layer"
     id="layer3"
     inkscape:label="dyn"
     style="display:none"
     transform="translate(84.347176,-133.37904)">
    <path
       sodipodi:end="2.0943951"
       sodipodi:start="0"
       d="m 456.58894,380.61075 c 0,103.20999 -83.66823,186.87822 -186.87822,186.87822 -32.80398,0 -65.03003,-8.63495 -93.43911,-25.03694 l 93.43911,-161.84128 z"
       sodipodi:ry="186.87822"
       sodipodi:rx="186.87822"
       sodipodi:cy="380.61075"
       sodipodi:cx="269.71072"
       id="path3814"
       style="opacity:0.65;fill:#ffffff;fill-opacity:1;stroke:#ffffff;stroke-width:5.5;stroke-linecap:round;stroke-linejoin:round;stroke-miterlimit:4;stroke-opacity:1;stroke-dasharray:none;stroke-dashoffset:0;display:none"
       sodipodi:type="arc"
       transform="matrix(-0.8660254,0.49999999,0.49999999,0.8660254,239.9656,-260.91094)" />
    <path
       sodipodi:end="2.0943951"
       sodipodi:start="0"
       d="m 456.58894,380.61075 c 0,103.20999 -83.66823,186.87822 -186.87822,186.87822 -32.80398,0 -65.03003,-8.63495 -93.43911,-25.03694 l 93.43911,-161.84128 z"
       sodipodi:ry="186.87822"
       sodipodi:rx="186.87822"
       sodipodi:cy="380.61075"
       sodipodi:cx="269.71072"
       id="path3818"
       style="opacity:0.65;fill:#ffffff;fill-opacity:1;stroke:#ffffff;stroke-width:5.5;stroke-linecap:round;stroke-linejoin:round;stroke-miterlimit:4;stroke-opacity:1;stroke-dasharray:none;stroke-dashoffset:0;display:inline"
       sodipodi:type="arc"
       transform="matrix(-0.8660254,0.49999999,0.49999999,0.8660254,239.9656,-260.91094)" />
  </g>
  <g
     inkscape:groupmode="layer"
     id="layer4"
     inkscape:label="stevo"
     style="display:none"
     transform="translate(84.347176,-133.37904)">
    <path
       transform="matrix(0.8660254,0.5,0.5,-0.8660254,-219.69854,384.39143)"
       sodipodi:end="2.0943951"
       sodipodi:start="0"
       d="m 456.58894,380.61075 c 0,103.20999 -83.66823,186.87822 -186.87822,186.87822 -32.80398,0 -65.03003,-8.63495 -93.43911,-25.03694 l 93.43911,-161.84128 z"
       sodipodi:ry="186.87822"
       sodipodi:rx="186.87822"
       sodipodi:cy="380.61075"
       sodipodi:cx="269.71072"
       id="path3809"
       style="opacity:0.65;fill:#ffffff;fill-opacity:1;stroke:#ffffff;stroke-width:5.5;stroke-linecap:round;stroke-linejoin:round;stroke-miterlimit:4;stroke-opacity:1;stroke-dasharray:none;stroke-dashoffset:0"
       sodipodi:type="arc" />
  </g>
</svg>
