<?xml version="1.0" encoding="UTF-8" standalone="no"?>
<svg
   xmlns:dc="http://purl.org/dc/elements/1.1/"
   xmlns:cc="http://creativecommons.org/ns#"
   xmlns:rdf="http://www.w3.org/1999/02/22-rdf-syntax-ns#"
   xmlns:svg="http://www.w3.org/2000/svg"
   xmlns="http://www.w3.org/2000/svg"
   xmlns:xlink="http://www.w3.org/1999/xlink"
   xmlns:sodipodi="http://sodipodi.sourceforge.net/DTD/sodipodi-0.dtd"
   xmlns:inkscape="http://www.inkscape.org/namespaces/inkscape"
   width="432.936"
   height="406.6076"
   version="1.1"
   id="svg2"
   inkscape:version="0.48.4 r9939"
   sodipodi:docname="Rbhbh.svg">
  <metadata
     id="metadata133">
    <rdf:RDF>
      <cc:Work
         rdf:about="">
        <dc:format>image/svg+xml</dc:format>
        <dc:type
           rdf:resource="http://purl.org/dc/dcmitype/StillImage" />
      </cc:Work>
    </rdf:RDF>
  </metadata>
  <sodipodi:namedview
     pagecolor="#ffffff"
     bordercolor="#666666"
     borderopacity="1"
     objecttolerance="10"
     gridtolerance="10"
     guidetolerance="10"
     inkscape:pageopacity="0"
     inkscape:pageshadow="2"
     inkscape:window-width="1280"
     inkscape:window-height="976"
     id="namedview131"
     showgrid="false"
     fit-margin-top="0"
     fit-margin-left="0"
     fit-margin-right="0"
     fit-margin-bottom="0"
     inkscape:zoom="0.44237006"
     inkscape:cx="265.395"
     inkscape:cy="266.265"
     inkscape:window-x="1438"
     inkscape:window-y="25"
     inkscape:window-maximized="1"
     inkscape:current-layer="svg2" />
  <desc
     id="desc4">Veusz output document</desc>
  <defs
     id="defs6">
    <clipPath
       id="c0">
      <path
         d="m 0,0 533.49,0 0,533.49 L 0,533.49 0,0"
         id="path9"
         inkscape:connector-curvature="0" />
    </clipPath>
    <clipPath
       id="c1">
      <path
         d="m 103.14,53.35 409.01,0 0,409.01 -409.01,0 0,-409.01"
         id="path12"
         inkscape:connector-curvature="0" />
    </clipPath>
  </defs>
  <g
     id="g14"
     style="fill-rule:evenodd;stroke:#000000;stroke-linecap:square;stroke-linejoin:bevel"
     transform="matrix(0.84548525,0,0,0.84548525,-1.1414051,-44.044497)">
    <g
       clip-path="url(#c0)"
       id="g16">
      <g
         id="g18"
         style="fill:#ffffff;stroke-width:2.5">
        <path
           d="m 103.14,53.35 409.01,0 0,409.01 -409.01,0 0,-409.01"
           id="path20"
           inkscape:connector-curvature="0" />
      </g>
    </g>
    <g
       clip-path="url(#c1)"
       id="g22">
      <g
         id="g24"
         style="fill:none;stroke:#0000ff;stroke-width:1.87;stroke-linecap:butt">
        <path
           d="m 121.73,333.6 0,-234.11 m 185.92,247.88 0,-275.43 m 185.91,371.83 0,-78.69"
           id="path26"
           inkscape:connector-curvature="0" />
      </g>
      <g
         id="g28"
         style="fill:none;stroke:#0000ff;stroke-width:1.87">
        <polyline
           points="121.73,216.54 307.65,209.65 493.56,443.77"
           id="polyline30"
           style="fill:none" />
      </g>
      <g
         id="g32"
         style="fill:#0000ff;stroke:#0000ff;stroke-width:0.62;stroke-linejoin:miter">
        <g
           transform="translate(121.73,216.54)"
           id="g34">
          <path
             d="M 3.75,0 C 3.75,2.07 2.07,3.75 0,3.75 -2.07,3.75 -3.75,2.07 -3.75,0 c 0,-2.07 1.68,-3.75 3.75,-3.75 2.07,0 3.75,1.68 3.75,3.75"
             id="p0"
             inkscape:connector-curvature="0" />
        </g>
        <use
           xlink:href="#p0"
           x="307.64999"
           y="209.64999"
           id="use37"
           width="533.48999"
           height="533.48999" />
        <use
           xlink:href="#p0"
           x="493.56"
           y="443.76999"
           id="use39"
           width="533.48999"
           height="533.48999" />
      </g>
    </g>
    <g
       clip-path="url(#c0)"
       id="g41">
      <g
         id="g43"
         style="fill:none;stroke-width:0.62;stroke-linecap:butt">
        <path
           d="m 103.14,462.36 0,-409.01"
           id="path45"
           inkscape:connector-curvature="0" />
      </g>
      <g
         id="g47"
         style="fill:none;stroke-width:1.25;stroke-linecap:butt">
        <path
           d="m 103.14,443.77 7.5,0 m -7.5,-34.43 7.5,0 m -7.5,-34.43 7.5,0 m -7.5,-34.43 7.5,0 m -7.5,-34.43 7.5,0 m -7.5,-34.43 7.5,0 m -7.5,-34.42 7.5,0 m -7.5,-34.43 7.5,0 m -7.5,-34.43 7.5,0 m -7.5,-34.43 7.5,0 m -7.5,-34.43 7.5,0 m -7.5,-34.43 7.5,0"
           id="path49"
           inkscape:connector-curvature="0" />
      </g>
      <g
         id="g51"
         style="fill:none;stroke-width:2.5;stroke-linecap:butt">
        <path
           d="m 103.14,443.77 12.5,0 m -12.5,-68.86 12.5,0 m -12.5,-68.86 12.5,0 m -12.5,-68.85 12.5,0 m -12.5,-68.86 12.5,0 m -12.5,-68.86 12.5,0"
           id="path53"
           inkscape:connector-curvature="0" />
      </g>
      <g
         id="g55"
         style="fill:none;stroke-width:0.62;stroke-linecap:butt">
        <path
           d="m 512.15,462.36 0,-409.01"
           id="path57"
           inkscape:connector-curvature="0" />
      </g>
      <g
         id="g59"
         style="fill:none;stroke-width:1.25;stroke-linecap:butt">
        <path
           d="m 512.15,443.77 -7.5,0 m 7.5,-34.43 -7.5,0 m 7.5,-34.43 -7.5,0 m 7.5,-34.43 -7.5,0 m 7.5,-34.43 -7.5,0 m 7.5,-34.43 -7.5,0 m 7.5,-34.42 -7.5,0 m 7.5,-34.43 -7.5,0 m 7.5,-34.43 -7.5,0 m 7.5,-34.43 -7.5,0 m 7.5,-34.43 -7.5,0 m 7.5,-34.43 -7.5,0"
           id="path61"
           inkscape:connector-curvature="0" />
      </g>
      <g
         id="g63"
         style="fill:none;stroke-width:2.5;stroke-linecap:butt">
        <path
           d="m 512.15,443.77 -12.5,0 m 12.5,-68.86 -12.5,0 m 12.5,-68.86 -12.5,0 m 12.5,-68.85 -12.5,0 m 12.5,-68.86 -12.5,0 m 12.5,-68.86 -12.5,0"
           id="path65"
           inkscape:connector-curvature="0" />
      </g>
      <g
         id="g67"
         style="fill:none;stroke-width:1">
        <g
           transform="matrix(0,-1,1,0,27.9,353.95)"
           id="g69">
          <path
             d="m 21.12,0 -5.52,0 -7,-9.67 c -0.52,0.02 -0.94,0.03 -1.27,0.03 -0.13,0 -0.27,0 -0.43,-0.01 C 6.75,-9.66 6.59,-9.66 6.43,-9.67 l 0,6.01 c 0,1.3 0.14,2.11 0.43,2.43 0.39,0.45 0.97,0.67 1.74,0.67 l 0.81,0 0,0.56 -8.87,0 0,-0.56 0.78,0 c 0.87,0 1.5,-0.28 1.88,-0.85 0.21,-0.32 0.32,-1.06 0.32,-2.24 l 0,-13.37 c 0,-1.3 -0.14,-2.11 -0.43,-2.43 -0.4,-0.45 -0.99,-0.67 -1.77,-0.67 l -0.78,0 0,-0.56 7.54,0 c 2.2,0 3.82,0.16 4.86,0.48 1.04,0.32 1.93,0.91 2.66,1.77 0.73,0.86 1.09,1.88 1.09,3.07 0,1.27 -0.41,2.38 -1.24,3.31 -0.83,0.94 -2.11,1.6 -3.85,1.98 l 4.27,5.94 c 0.98,1.36 1.82,2.27 2.52,2.71 0.7,0.45 1.62,0.73 2.75,0.86 l 0,0.56 M 6.44,-10.64 c 0.19,0 0.36,0 0.5,0.01 0.14,0.01 0.26,0.01 0.35,0.01 1.97,0 3.46,-0.43 4.46,-1.28 1,-0.85 1.5,-1.94 1.5,-3.26 0,-1.29 -0.4,-2.34 -1.21,-3.15 -0.81,-0.81 -1.88,-1.21 -3.21,-1.21 -0.59,0 -1.39,0.1 -2.4,0.29 l 0,8.6 m 31.55,16.83 -6.71,0 0,-27.36 6.71,0 0,1.21 -4.43,0 0,24.96 4.43,0 0,1.19 M 51.89,0 l -8,-17.41 0,13.82 c 0,1.27 0.14,2.07 0.41,2.38 0.38,0.43 0.97,0.64 1.79,0.64 l 0.73,0 0,0.56 -7.2,0 0,-0.56 0.73,0 c 0.87,0 1.5,-0.26 1.86,-0.79 0.22,-0.33 0.34,-1.07 0.34,-2.23 l 0,-13.52 c 0,-0.92 -0.1,-1.58 -0.3,-1.98 -0.14,-0.29 -0.4,-0.54 -0.79,-0.74 -0.38,-0.2 -0.99,-0.3 -1.84,-0.3 l 0,-0.56 5.86,0 7.51,16.19 7.38,-16.19 5.86,0 0,0.56 -0.72,0 c -0.88,0 -1.51,0.26 -1.88,0.79 -0.22,0.32 -0.34,1.07 -0.34,2.23 l 0,13.52 c 0,1.27 0.14,2.07 0.43,2.38 0.38,0.43 0.97,0.64 1.78,0.64 l 0.72,0 0,0.56 -8.79,0 0,-0.56 0.73,0 c 0.89,0 1.51,-0.26 1.86,-0.79 0.22,-0.33 0.34,-1.07 0.34,-2.23 l 0,-13.82 L 52.38,0 51.88,0 m 14.98,-12.59 4.3,-1.74 0.58,0 0,3.27 c 0.72,-1.23 1.45,-2.09 2.17,-2.59 0.73,-0.49 1.49,-0.74 2.3,-0.74 1.4,0 2.57,0.55 3.51,1.65 1.15,1.34 1.72,3.09 1.72,5.25 0,2.41 -0.69,4.41 -2.07,5.98 -1.14,1.29 -2.57,1.94 -4.3,1.94 -0.75,0 -1.4,-0.11 -1.95,-0.32 -0.41,-0.15 -0.86,-0.46 -1.37,-0.92 l 0,4.26 c 0,0.96 0.06,1.56 0.18,1.82 0.12,0.26 0.32,0.47 0.61,0.62 0.29,0.15 0.82,0.23 1.58,0.23 l 0,0.56 -7.32,0 0,-0.56 0.38,0 c 0.56,0.01 1.04,-0.1 1.43,-0.32 0.19,-0.11 0.34,-0.29 0.45,-0.54 0.11,-0.25 0.16,-0.88 0.16,-1.9 l 0,-13.21 c 0,-0.91 -0.04,-1.48 -0.12,-1.72 -0.08,-0.24 -0.21,-0.43 -0.39,-0.55 -0.18,-0.12 -0.42,-0.18 -0.72,-0.18 -0.24,0 -0.55,0.07 -0.93,0.21 l -0.18,-0.49 m 4.88,2.43 0,5.22 c 0,1.13 0.05,1.87 0.14,2.23 0.14,0.59 0.49,1.11 1.05,1.56 0.55,0.45 1.25,0.67 2.1,0.67 1.02,0 1.84,-0.4 2.47,-1.19 0.82,-1.04 1.24,-2.5 1.24,-4.38 0,-2.14 -0.47,-3.78 -1.4,-4.93 -0.65,-0.79 -1.42,-1.19 -2.32,-1.19 -0.49,0 -0.97,0.12 -1.45,0.37 -0.37,0.18 -0.97,0.73 -1.82,1.65 m 23.7,4.85 c -0.38,1.84 -1.11,3.26 -2.21,4.25 -1.1,0.99 -2.31,1.49 -3.65,1.49 -1.59,0 -2.97,-0.67 -4.15,-2 -1.18,-1.33 -1.77,-3.13 -1.77,-5.4 0,-2.2 0.65,-3.98 1.96,-5.36 1.31,-1.37 2.88,-2.06 4.71,-2.06 1.37,0 2.5,0.36 3.39,1.09 0.88,0.73 1.33,1.48 1.33,2.27 0,0.39 -0.12,0.7 -0.37,0.94 -0.25,0.24 -0.6,0.36 -1.04,0.36 -0.6,0 -1.05,-0.19 -1.36,-0.58 -0.17,-0.21 -0.29,-0.62 -0.34,-1.22 -0.06,-0.6 -0.26,-1.06 -0.62,-1.37 -0.36,-0.31 -0.85,-0.46 -1.48,-0.46 -1.02,0 -1.84,0.38 -2.46,1.13 -0.82,1 -1.24,2.31 -1.24,3.95 0,1.67 0.41,3.14 1.23,4.42 0.82,1.28 1.92,1.91 3.32,1.91 1,0 1.89,-0.34 2.69,-1.02 0.56,-0.47 1.1,-1.32 1.63,-2.55 l 0.44,0.21"
             id="path71"
             inkscape:connector-curvature="0"
             style="fill:#000000;fill-opacity:1;stroke:none" />
          <path
             d="m 97.26,-18.78 4.73,0 0,1.38 -4.73,0 0,-1.38 m 6.49,-5.15 c 0.35,-0.84 0.8,-1.48 1.34,-1.94 0.54,-0.45 1.21,-0.68 2.02,-0.68 0.99,0 1.76,0.32 2.29,0.97 0.4,0.48 0.6,1 0.6,1.55 0,0.9 -0.57,1.84 -1.7,2.8 0.76,0.3 1.34,0.73 1.73,1.28 0.39,0.56 0.59,1.21 0.59,1.96 0,1.07 -0.34,2 -1.02,2.79 -0.89,1.03 -2.18,1.54 -3.87,1.54 -0.84,0 -1.41,-0.1 -1.71,-0.31 -0.3,-0.21 -0.45,-0.43 -0.45,-0.67 0,-0.18 0.07,-0.33 0.22,-0.47 0.14,-0.13 0.32,-0.2 0.52,-0.2 0.15,0 0.31,0.02 0.47,0.07 0.1,0.03 0.34,0.14 0.71,0.33 0.37,0.19 0.62,0.31 0.76,0.34 0.23,0.07 0.47,0.1 0.72,0.1 0.62,0 1.16,-0.24 1.63,-0.72 0.46,-0.48 0.69,-1.05 0.69,-1.71 0,-0.48 -0.11,-0.95 -0.32,-1.41 -0.16,-0.34 -0.33,-0.6 -0.52,-0.78 -0.26,-0.24 -0.62,-0.47 -1.08,-0.66 -0.46,-0.2 -0.92,-0.3 -1.4,-0.3 l -0.29,0 0,-0.27 c 0.48,-0.06 0.97,-0.24 1.45,-0.52 0.49,-0.29 0.84,-0.63 1.06,-1.03 0.22,-0.4 0.33,-0.85 0.33,-1.33 0,-0.63 -0.2,-1.14 -0.59,-1.52 -0.39,-0.39 -0.88,-0.58 -1.47,-0.58 -0.95,0 -1.74,0.51 -2.37,1.52 l -0.3,-0.15"
             id="path73"
             inkscape:connector-curvature="0"
             style="fill:#000000;fill-opacity:1;stroke:none" />
          <path
             d="m 124.99,0 -8,-17.41 0,13.82 c 0,1.27 0.14,2.07 0.41,2.38 0.38,0.43 0.97,0.64 1.79,0.64 l 0.73,0 0,0.56 -7.2,0 0,-0.56 0.73,0 c 0.87,0 1.5,-0.26 1.86,-0.79 0.22,-0.33 0.34,-1.07 0.34,-2.23 l 0,-13.52 c 0,-0.92 -0.1,-1.58 -0.3,-1.98 -0.14,-0.29 -0.4,-0.54 -0.79,-0.74 -0.38,-0.2 -0.99,-0.3 -1.84,-0.3 l 0,-0.56 5.86,0 7.51,16.19 7.38,-16.19 5.86,0 0,0.56 -0.72,0 c -0.88,0 -1.51,0.26 -1.88,0.79 -0.22,0.32 -0.34,1.07 -0.34,2.23 l 0,13.52 c 0,1.27 0.14,2.07 0.43,2.38 0.38,0.43 0.97,0.64 1.78,0.64 l 0.72,0 0,0.56 -8.79,0 0,-0.56 0.73,0 c 0.89,0 1.51,-0.26 1.86,-0.79 0.22,-0.33 0.34,-1.07 0.34,-2.23 l 0,-13.82 -7.98,17.41 -0.5,0 m 15.2,-13.98 6.52,0 0,0.56 -0.32,0 c -0.46,0 -0.8,0.1 -1.03,0.3 -0.23,0.2 -0.34,0.45 -0.34,0.74 0,0.4 0.17,0.95 0.5,1.65 l 3.4,7.05 3.13,-7.72 c 0.17,-0.42 0.26,-0.83 0.26,-1.24 0,-0.18 -0.04,-0.32 -0.11,-0.41 -0.08,-0.11 -0.21,-0.2 -0.38,-0.27 -0.17,-0.07 -0.48,-0.1 -0.92,-0.1 l 0,-0.56 4.55,0 0,0.56 c -0.38,0.04 -0.67,0.12 -0.87,0.24 -0.2,0.12 -0.43,0.35 -0.67,0.69 -0.09,0.14 -0.26,0.53 -0.52,1.17 l -5.69,13.95 c -0.55,1.35 -1.27,2.38 -2.16,3.07 -0.89,0.69 -1.75,1.04 -2.57,1.04 -0.6,0 -1.09,-0.17 -1.48,-0.52 -0.39,-0.35 -0.58,-0.74 -0.58,-1.19 0,-0.43 0.14,-0.77 0.42,-1.03 0.28,-0.26 0.66,-0.39 1.15,-0.39 0.34,0 0.79,0.11 1.37,0.34 0.41,0.15 0.66,0.23 0.76,0.23 0.31,0 0.64,-0.16 1,-0.47 0.36,-0.32 0.72,-0.93 1.09,-1.83 l 0.99,-2.43 -5.02,-10.54 c -0.15,-0.31 -0.4,-0.71 -0.73,-1.17 -0.25,-0.36 -0.46,-0.59 -0.62,-0.72 -0.23,-0.16 -0.61,-0.3 -1.13,-0.43 l 0,-0.56 m 20.58,-0.41 0,3.14 c 1.17,-2.1 2.37,-3.14 3.6,-3.14 0.56,0 1.02,0.17 1.39,0.51 0.37,0.34 0.55,0.73 0.55,1.18 0,0.4 -0.13,0.73 -0.4,1.01 -0.26,0.27 -0.58,0.41 -0.95,0.41 -0.36,0 -0.76,-0.18 -1.2,-0.53 -0.44,-0.35 -0.77,-0.53 -0.98,-0.53 -0.18,0 -0.38,0.1 -0.6,0.31 -0.46,0.42 -0.93,1.1 -1.42,2.06 l 0,6.7 c 0,0.77 0.1,1.36 0.29,1.75 0.13,0.27 0.37,0.5 0.7,0.69 0.34,0.18 0.82,0.27 1.45,0.27 l 0,0.55 -7.16,0 0,-0.55 c 0.71,0 1.24,-0.11 1.59,-0.33 0.25,-0.16 0.43,-0.42 0.53,-0.78 0.05,-0.17 0.08,-0.67 0.08,-1.48 l 0,-5.42 c 0,-1.63 -0.03,-2.6 -0.1,-2.91 -0.07,-0.31 -0.19,-0.54 -0.37,-0.68 -0.18,-0.14 -0.4,-0.21 -0.66,-0.21 -0.32,0 -0.67,0.08 -1.07,0.23 l -0.15,-0.55 4.23,-1.71 0.64,0"
             id="path75"
             inkscape:connector-curvature="0"
             style="fill:#000000;fill-opacity:1;stroke:none" />
          <path
             d="m 166.86,-18.78 4.73,0 0,1.38 -4.73,0 0,-1.38 m 7.74,-6.3 3.02,-1.47 0.3,0 0,10.48 c 0,0.7 0.03,1.13 0.09,1.3 0.06,0.17 0.18,0.3 0.36,0.39 0.18,0.09 0.55,0.14 1.12,0.16 l 0,0.34 -4.67,0 0,-0.34 c 0.59,-0.01 0.96,-0.06 1.14,-0.15 0.17,-0.09 0.29,-0.21 0.36,-0.36 0.07,-0.15 0.1,-0.6 0.1,-1.34 l 0,-6.7 c 0,-0.9 -0.03,-1.48 -0.09,-1.74 -0.04,-0.19 -0.12,-0.34 -0.23,-0.43 -0.11,-0.09 -0.25,-0.14 -0.41,-0.14 -0.23,0 -0.54,0.09 -0.94,0.28 l -0.14,-0.28"
             id="path77"
             inkscape:connector-curvature="0"
             style="fill:#000000;fill-opacity:1;stroke:none" />
          <path
             d="m 182.94,-21.16 6.71,0 0,27.37 -6.71,0 0,-1.21 4.42,0 0,-24.96 -4.42,0 0,-1.21"
             id="path79"
             inkscape:connector-curvature="0"
             style="fill:#000000;fill-opacity:1;stroke:none" />
        </g>
        <path
           d="m 85.24,444.19 c 0,-1.89 0.28,-3.51 0.85,-4.88 0.57,-1.36 1.33,-2.38 2.27,-3.05 0.73,-0.53 1.49,-0.79 2.27,-0.79 1.27,0 2.41,0.65 3.42,1.94 1.26,1.6 1.89,3.78 1.89,6.52 0,1.92 -0.28,3.55 -0.83,4.89 -0.55,1.34 -1.26,2.32 -2.12,2.92 -0.86,0.61 -1.69,0.91 -2.48,0.91 -1.58,0 -2.89,-0.93 -3.94,-2.8 -0.89,-1.57 -1.33,-3.46 -1.33,-5.67 m 2.39,0.3 c 0,2.28 0.28,4.14 0.84,5.58 0.46,1.21 1.16,1.82 2.08,1.82 0.44,0 0.89,-0.2 1.37,-0.59 0.47,-0.39 0.83,-1.06 1.07,-1.98 0.37,-1.4 0.56,-3.37 0.56,-5.92 0,-1.89 -0.2,-3.46 -0.59,-4.72 -0.29,-0.94 -0.67,-1.6 -1.13,-1.99 -0.33,-0.27 -0.74,-0.4 -1.21,-0.4 -0.55,0 -1.05,0.25 -1.48,0.75 -0.59,0.67 -0.98,1.74 -1.2,3.19 -0.21,1.45 -0.32,2.88 -0.32,4.29"
           id="path81"
           inkscape:connector-curvature="0"
           style="fill:#000000;fill-opacity:1;stroke:none" />
        <path
           d="m 41.44,375.33 c 0,-1.89 0.28,-3.51 0.85,-4.88 0.57,-1.36 1.33,-2.38 2.27,-3.05 0.73,-0.53 1.49,-0.79 2.27,-0.79 1.27,0 2.41,0.65 3.42,1.94 1.26,1.6 1.89,3.78 1.89,6.52 0,1.92 -0.28,3.55 -0.83,4.89 -0.55,1.34 -1.26,2.32 -2.12,2.92 -0.86,0.61 -1.69,0.91 -2.48,0.91 -1.58,0 -2.89,-0.93 -3.94,-2.8 -0.89,-1.57 -1.33,-3.46 -1.33,-5.67 m 2.39,0.3 c 0,2.28 0.28,4.14 0.84,5.58 0.46,1.21 1.16,1.82 2.08,1.82 0.44,0 0.89,-0.2 1.37,-0.59 0.47,-0.39 0.83,-1.06 1.07,-1.98 0.37,-1.4 0.56,-3.37 0.56,-5.92 0,-1.89 -0.2,-3.46 -0.59,-4.72 -0.29,-0.94 -0.67,-1.6 -1.13,-1.99 -0.33,-0.27 -0.74,-0.4 -1.21,-0.4 -0.55,0 -1.05,0.25 -1.48,0.75 -0.59,0.67 -0.98,1.74 -1.2,3.19 -0.21,1.45 -0.32,2.88 -0.32,4.29 m 12.33,5.5 c 0.38,0 0.7,0.13 0.96,0.4 0.26,0.26 0.39,0.58 0.39,0.96 0,0.37 -0.13,0.69 -0.4,0.96 -0.26,0.26 -0.58,0.4 -0.96,0.4 -0.37,0 -0.69,-0.13 -0.96,-0.4 -0.26,-0.26 -0.4,-0.58 -0.4,-0.96 0,-0.38 0.13,-0.71 0.4,-0.97 0.26,-0.26 0.58,-0.39 0.96,-0.39 m 4.08,-5.81 c 0,-1.89 0.28,-3.51 0.85,-4.88 0.57,-1.36 1.33,-2.38 2.27,-3.05 0.73,-0.53 1.49,-0.79 2.27,-0.79 1.27,0 2.41,0.65 3.42,1.94 1.26,1.6 1.89,3.78 1.89,6.52 0,1.92 -0.28,3.55 -0.83,4.89 -0.55,1.34 -1.26,2.32 -2.12,2.92 -0.86,0.61 -1.69,0.91 -2.48,0.91 -1.58,0 -2.89,-0.93 -3.94,-2.8 -0.89,-1.57 -1.33,-3.46 -1.33,-5.67 m 2.39,0.3 c 0,2.28 0.28,4.14 0.84,5.58 0.46,1.21 1.16,1.82 2.08,1.82 0.44,0 0.89,-0.2 1.37,-0.59 0.47,-0.39 0.83,-1.06 1.07,-1.98 0.37,-1.4 0.56,-3.37 0.56,-5.92 0,-1.89 -0.2,-3.46 -0.59,-4.72 -0.29,-0.94 -0.67,-1.6 -1.13,-1.99 -0.33,-0.27 -0.74,-0.4 -1.21,-0.4 -0.55,0 -1.05,0.25 -1.48,0.75 -0.59,0.67 -0.98,1.74 -1.2,3.19 -0.21,1.45 -0.32,2.88 -0.32,4.29 m 10.11,-0.3 c 0,-1.89 0.28,-3.51 0.85,-4.88 0.57,-1.36 1.33,-2.38 2.27,-3.05 0.73,-0.53 1.49,-0.79 2.27,-0.79 1.27,0 2.41,0.65 3.42,1.94 1.26,1.6 1.89,3.78 1.89,6.52 0,1.92 -0.28,3.55 -0.83,4.89 -0.55,1.34 -1.26,2.32 -2.12,2.92 -0.86,0.61 -1.69,0.91 -2.48,0.91 -1.58,0 -2.89,-0.93 -3.94,-2.8 -0.89,-1.57 -1.33,-3.46 -1.33,-5.67 m 2.39,0.3 c 0,2.28 0.28,4.14 0.84,5.58 0.46,1.21 1.16,1.82 2.08,1.82 0.44,0 0.89,-0.2 1.37,-0.59 0.47,-0.39 0.83,-1.06 1.07,-1.98 0.37,-1.4 0.56,-3.37 0.56,-5.92 0,-1.89 -0.2,-3.46 -0.59,-4.72 -0.29,-0.94 -0.67,-1.6 -1.13,-1.99 -0.33,-0.27 -0.74,-0.4 -1.21,-0.4 -0.55,0 -1.05,0.25 -1.48,0.75 -0.59,0.67 -0.98,1.74 -1.2,3.19 -0.21,1.45 -0.32,2.88 -0.32,4.29 m 12.13,-7.06 4.03,-1.97 0.4,0 0,13.98 c 0,0.93 0.04,1.5 0.12,1.73 0.08,0.23 0.24,0.4 0.48,0.52 0.24,0.12 0.74,0.19 1.49,0.21 l 0,0.45 -6.22,0 0,-0.45 c 0.78,-0.02 1.29,-0.08 1.51,-0.2 0.23,-0.12 0.39,-0.28 0.48,-0.48 0.09,-0.2 0.13,-0.8 0.13,-1.79 l 0,-8.94 c 0,-1.2 -0.04,-1.98 -0.12,-2.32 -0.06,-0.26 -0.16,-0.45 -0.31,-0.57 -0.15,-0.12 -0.33,-0.18 -0.54,-0.18 -0.3,0 -0.72,0.13 -1.26,0.38 l -0.18,-0.38"
           id="path83"
           inkscape:connector-curvature="0"
           style="fill:#000000;fill-opacity:1;stroke:none" />
        <path
           d="m 41.44,306.47 c 0,-1.89 0.28,-3.51 0.85,-4.88 0.57,-1.36 1.33,-2.38 2.27,-3.05 0.73,-0.53 1.49,-0.79 2.27,-0.79 1.27,0 2.41,0.65 3.42,1.94 1.26,1.6 1.89,3.78 1.89,6.52 0,1.92 -0.28,3.55 -0.83,4.89 -0.55,1.34 -1.26,2.32 -2.12,2.92 -0.86,0.61 -1.69,0.91 -2.48,0.91 -1.58,0 -2.89,-0.93 -3.94,-2.8 -0.89,-1.57 -1.33,-3.46 -1.33,-5.67 m 2.39,0.3 c 0,2.28 0.28,4.14 0.84,5.58 0.46,1.21 1.16,1.82 2.08,1.82 0.44,0 0.89,-0.2 1.37,-0.59 0.47,-0.39 0.83,-1.06 1.07,-1.98 0.37,-1.4 0.56,-3.37 0.56,-5.92 0,-1.89 -0.2,-3.46 -0.59,-4.72 -0.29,-0.94 -0.67,-1.6 -1.13,-1.99 -0.33,-0.27 -0.74,-0.4 -1.21,-0.4 -0.55,0 -1.05,0.25 -1.48,0.75 -0.59,0.67 -0.98,1.74 -1.2,3.19 -0.21,1.45 -0.32,2.88 -0.32,4.29 m 12.33,5.5 c 0.38,0 0.7,0.13 0.96,0.4 0.26,0.26 0.39,0.58 0.39,0.96 0,0.37 -0.13,0.69 -0.4,0.96 -0.26,0.26 -0.58,0.4 -0.96,0.4 -0.37,0 -0.69,-0.13 -0.96,-0.4 -0.26,-0.26 -0.4,-0.58 -0.4,-0.96 0,-0.38 0.13,-0.71 0.4,-0.97 0.26,-0.26 0.58,-0.39 0.96,-0.39 m 4.08,-5.81 c 0,-1.89 0.28,-3.51 0.85,-4.88 0.57,-1.36 1.33,-2.38 2.27,-3.05 0.73,-0.53 1.49,-0.79 2.27,-0.79 1.27,0 2.41,0.65 3.42,1.94 1.26,1.6 1.89,3.78 1.89,6.52 0,1.92 -0.28,3.55 -0.83,4.89 -0.55,1.34 -1.26,2.32 -2.12,2.92 -0.86,0.61 -1.69,0.91 -2.48,0.91 -1.58,0 -2.89,-0.93 -3.94,-2.8 -0.89,-1.57 -1.33,-3.46 -1.33,-5.67 m 2.39,0.3 c 0,2.28 0.28,4.14 0.84,5.58 0.46,1.21 1.16,1.82 2.08,1.82 0.44,0 0.89,-0.2 1.37,-0.59 0.47,-0.39 0.83,-1.06 1.07,-1.98 0.37,-1.4 0.56,-3.37 0.56,-5.92 0,-1.89 -0.2,-3.46 -0.59,-4.72 -0.29,-0.94 -0.67,-1.6 -1.13,-1.99 -0.33,-0.27 -0.74,-0.4 -1.21,-0.4 -0.55,0 -1.05,0.25 -1.48,0.75 -0.59,0.67 -0.98,1.74 -1.2,3.19 -0.21,1.45 -0.32,2.88 -0.32,4.29 m 10.11,-0.3 c 0,-1.89 0.28,-3.51 0.85,-4.88 0.57,-1.36 1.33,-2.38 2.27,-3.05 0.73,-0.53 1.49,-0.79 2.27,-0.79 1.27,0 2.41,0.65 3.42,1.94 1.26,1.6 1.89,3.78 1.89,6.52 0,1.92 -0.28,3.55 -0.83,4.89 -0.55,1.34 -1.26,2.32 -2.12,2.92 -0.86,0.61 -1.69,0.91 -2.48,0.91 -1.58,0 -2.89,-0.93 -3.94,-2.8 -0.89,-1.57 -1.33,-3.46 -1.33,-5.67 m 2.39,0.3 c 0,2.28 0.28,4.14 0.84,5.58 0.46,1.21 1.16,1.82 2.08,1.82 0.44,0 0.89,-0.2 1.37,-0.59 0.47,-0.39 0.83,-1.06 1.07,-1.98 0.37,-1.4 0.56,-3.37 0.56,-5.92 0,-1.89 -0.2,-3.46 -0.59,-4.72 -0.29,-0.94 -0.67,-1.6 -1.13,-1.99 -0.33,-0.27 -0.74,-0.4 -1.21,-0.4 -0.55,0 -1.05,0.25 -1.48,0.75 -0.59,0.67 -0.98,1.74 -1.2,3.19 -0.21,1.45 -0.32,2.88 -0.32,4.29 m 20.67,4.69 -1.16,3.19 -9.77,0 0,-0.45 c 2.87,-2.62 4.9,-4.76 6.07,-6.42 1.17,-1.66 1.76,-3.18 1.76,-4.55 0,-1.05 -0.32,-1.91 -0.96,-2.59 -0.64,-0.68 -1.41,-1.01 -2.31,-1.01 -0.81,0 -1.54,0.24 -2.19,0.71 -0.65,0.48 -1.13,1.17 -1.43,2.09 l -0.45,0 c 0.2,-1.51 0.73,-2.66 1.57,-3.47 0.84,-0.81 1.89,-1.21 3.16,-1.21 1.34,0 2.46,0.43 3.36,1.29 0.9,0.86 1.35,1.88 1.35,3.05 0,0.84 -0.2,1.68 -0.59,2.51 -0.6,1.32 -1.58,2.71 -2.93,4.19 -2.03,2.21 -3.29,3.55 -3.8,4 l 4.32,0 c 0.88,0 1.5,-0.03 1.85,-0.1 0.35,-0.07 0.67,-0.2 0.96,-0.4 0.28,-0.2 0.53,-0.48 0.74,-0.85 l 0.45,0"
           id="path85"
           inkscape:connector-curvature="0"
           style="fill:#000000;fill-opacity:1;stroke:none" />
        <path
           d="m 41.44,237.62 c 0,-1.89 0.28,-3.51 0.85,-4.88 0.57,-1.36 1.33,-2.38 2.27,-3.05 0.73,-0.53 1.49,-0.79 2.27,-0.79 1.27,0 2.41,0.65 3.42,1.94 1.26,1.6 1.89,3.78 1.89,6.52 0,1.92 -0.28,3.55 -0.83,4.89 -0.55,1.34 -1.26,2.32 -2.12,2.92 -0.86,0.61 -1.69,0.91 -2.48,0.91 -1.58,0 -2.89,-0.93 -3.94,-2.8 -0.89,-1.57 -1.33,-3.46 -1.33,-5.67 m 2.39,0.3 c 0,2.28 0.28,4.14 0.84,5.58 0.46,1.21 1.16,1.82 2.08,1.82 0.44,0 0.89,-0.2 1.37,-0.59 0.47,-0.39 0.83,-1.06 1.07,-1.98 0.37,-1.4 0.56,-3.37 0.56,-5.92 0,-1.89 -0.2,-3.46 -0.59,-4.72 -0.29,-0.94 -0.67,-1.6 -1.13,-1.99 -0.33,-0.27 -0.74,-0.4 -1.21,-0.4 -0.55,0 -1.05,0.25 -1.48,0.75 -0.59,0.67 -0.98,1.74 -1.2,3.19 -0.21,1.45 -0.32,2.88 -0.32,4.29 m 12.33,5.5 c 0.38,0 0.7,0.13 0.96,0.4 0.26,0.26 0.39,0.58 0.39,0.96 0,0.37 -0.13,0.69 -0.4,0.96 -0.26,0.26 -0.58,0.4 -0.96,0.4 -0.37,0 -0.69,-0.13 -0.96,-0.4 -0.26,-0.26 -0.4,-0.58 -0.4,-0.96 0,-0.38 0.13,-0.71 0.4,-0.97 0.26,-0.26 0.58,-0.39 0.96,-0.39 m 4.08,-5.81 c 0,-1.89 0.28,-3.51 0.85,-4.88 0.57,-1.36 1.33,-2.38 2.27,-3.05 0.73,-0.53 1.49,-0.79 2.27,-0.79 1.27,0 2.41,0.65 3.42,1.94 1.26,1.6 1.89,3.78 1.89,6.52 0,1.92 -0.28,3.55 -0.83,4.89 -0.55,1.34 -1.26,2.32 -2.12,2.92 -0.86,0.61 -1.69,0.91 -2.48,0.91 -1.58,0 -2.89,-0.93 -3.94,-2.8 -0.89,-1.57 -1.33,-3.46 -1.33,-5.67 m 2.39,0.3 c 0,2.28 0.28,4.14 0.84,5.58 0.46,1.21 1.16,1.82 2.08,1.82 0.44,0 0.89,-0.2 1.37,-0.59 0.47,-0.39 0.83,-1.06 1.07,-1.98 0.37,-1.4 0.56,-3.37 0.56,-5.92 0,-1.89 -0.2,-3.46 -0.59,-4.72 -0.29,-0.94 -0.67,-1.6 -1.13,-1.99 -0.33,-0.27 -0.74,-0.4 -1.21,-0.4 -0.55,0 -1.05,0.25 -1.48,0.75 -0.59,0.67 -0.98,1.74 -1.2,3.19 -0.21,1.45 -0.32,2.88 -0.32,4.29 m 10.11,-0.3 c 0,-1.89 0.28,-3.51 0.85,-4.88 0.57,-1.36 1.33,-2.38 2.27,-3.05 0.73,-0.53 1.49,-0.79 2.27,-0.79 1.27,0 2.41,0.65 3.42,1.94 1.26,1.6 1.89,3.78 1.89,6.52 0,1.92 -0.28,3.55 -0.83,4.89 -0.55,1.34 -1.26,2.32 -2.12,2.92 -0.86,0.61 -1.69,0.91 -2.48,0.91 -1.58,0 -2.89,-0.93 -3.94,-2.8 -0.89,-1.57 -1.33,-3.46 -1.33,-5.67 m 2.39,0.3 c 0,2.28 0.28,4.14 0.84,5.58 0.46,1.21 1.16,1.82 2.08,1.82 0.44,0 0.89,-0.2 1.37,-0.59 0.47,-0.39 0.83,-1.06 1.07,-1.98 0.37,-1.4 0.56,-3.37 0.56,-5.92 0,-1.89 -0.2,-3.46 -0.59,-4.72 -0.29,-0.94 -0.67,-1.6 -1.13,-1.99 -0.33,-0.27 -0.74,-0.4 -1.21,-0.4 -0.55,0 -1.05,0.25 -1.48,0.75 -0.59,0.67 -0.98,1.74 -1.2,3.19 -0.21,1.45 -0.32,2.88 -0.32,4.29 m 10.47,-5.53 c 0.47,-1.11 1.07,-1.98 1.79,-2.58 0.72,-0.61 1.62,-0.91 2.69,-0.91 1.33,0 2.34,0.43 3.05,1.3 0.54,0.64 0.8,1.33 0.8,2.06 0,1.2 -0.76,2.45 -2.27,3.74 1.02,0.4 1.79,0.97 2.31,1.71 0.52,0.74 0.78,1.61 0.78,2.61 0,1.43 -0.46,2.67 -1.37,3.72 -1.19,1.37 -2.91,2.05 -5.16,2.05 -1.11,0 -1.87,-0.14 -2.28,-0.42 -0.4,-0.28 -0.6,-0.57 -0.6,-0.89 0,-0.24 0.1,-0.44 0.29,-0.62 0.19,-0.18 0.42,-0.27 0.69,-0.27 0.2,0 0.41,0.03 0.62,0.1 0.14,0.04 0.45,0.19 0.94,0.45 0.49,0.26 0.83,0.41 1.01,0.46 0.3,0.09 0.62,0.13 0.96,0.13 0.83,0 1.55,-0.32 2.17,-0.96 0.61,-0.64 0.92,-1.4 0.92,-2.28 0,-0.64 -0.14,-1.27 -0.43,-1.88 -0.21,-0.46 -0.44,-0.8 -0.7,-1.04 -0.35,-0.32 -0.83,-0.62 -1.44,-0.88 -0.61,-0.26 -1.23,-0.4 -1.87,-0.4 l -0.39,0 0,-0.37 c 0.64,-0.08 1.29,-0.31 1.93,-0.7 0.65,-0.38 1.12,-0.84 1.41,-1.38 0.29,-0.54 0.44,-1.13 0.44,-1.77 0,-0.84 -0.26,-1.52 -0.79,-2.03 -0.52,-0.52 -1.18,-0.77 -1.96,-0.77 -1.26,0 -2.32,0.68 -3.16,2.03 l -0.4,-0.2"
           id="path87"
           inkscape:connector-curvature="0"
           style="fill:#000000;fill-opacity:1;stroke:none" />
        <path
           d="m 41.44,168.76 c 0,-1.89 0.28,-3.51 0.85,-4.88 0.57,-1.36 1.33,-2.38 2.27,-3.05 0.73,-0.53 1.49,-0.79 2.27,-0.79 1.27,0 2.41,0.65 3.42,1.94 1.26,1.6 1.89,3.78 1.89,6.52 0,1.92 -0.28,3.55 -0.83,4.89 -0.55,1.34 -1.26,2.32 -2.12,2.92 -0.86,0.61 -1.69,0.91 -2.48,0.91 -1.58,0 -2.89,-0.93 -3.94,-2.8 -0.89,-1.57 -1.33,-3.46 -1.33,-5.67 m 2.39,0.3 c 0,2.28 0.28,4.14 0.84,5.58 0.46,1.21 1.16,1.82 2.08,1.82 0.44,0 0.89,-0.2 1.37,-0.59 0.47,-0.39 0.83,-1.06 1.07,-1.98 0.37,-1.4 0.56,-3.37 0.56,-5.92 0,-1.89 -0.2,-3.46 -0.59,-4.72 -0.29,-0.94 -0.67,-1.6 -1.13,-1.99 -0.33,-0.27 -0.74,-0.4 -1.21,-0.4 -0.55,0 -1.05,0.25 -1.48,0.75 -0.59,0.67 -0.98,1.74 -1.2,3.19 -0.21,1.45 -0.32,2.88 -0.32,4.29 m 12.33,5.5 c 0.38,0 0.7,0.13 0.96,0.4 0.26,0.26 0.39,0.58 0.39,0.96 0,0.37 -0.13,0.69 -0.4,0.96 -0.26,0.26 -0.58,0.4 -0.96,0.4 -0.37,0 -0.69,-0.13 -0.96,-0.4 -0.26,-0.26 -0.4,-0.58 -0.4,-0.96 0,-0.38 0.13,-0.71 0.4,-0.97 0.26,-0.26 0.58,-0.39 0.96,-0.39 m 4.08,-5.81 c 0,-1.89 0.28,-3.51 0.85,-4.88 0.57,-1.36 1.33,-2.38 2.27,-3.05 0.73,-0.53 1.49,-0.79 2.27,-0.79 1.27,0 2.41,0.65 3.42,1.94 1.26,1.6 1.89,3.78 1.89,6.52 0,1.92 -0.28,3.55 -0.83,4.89 -0.55,1.34 -1.26,2.32 -2.12,2.92 -0.86,0.61 -1.69,0.91 -2.48,0.91 -1.58,0 -2.89,-0.93 -3.94,-2.8 -0.89,-1.57 -1.33,-3.46 -1.33,-5.67 m 2.39,0.3 c 0,2.28 0.28,4.14 0.84,5.58 0.46,1.21 1.16,1.82 2.08,1.82 0.44,0 0.89,-0.2 1.37,-0.59 0.47,-0.39 0.83,-1.06 1.07,-1.98 0.37,-1.4 0.56,-3.37 0.56,-5.92 0,-1.89 -0.2,-3.46 -0.59,-4.72 -0.29,-0.94 -0.67,-1.6 -1.13,-1.99 -0.33,-0.27 -0.74,-0.4 -1.21,-0.4 -0.55,0 -1.05,0.25 -1.48,0.75 -0.59,0.67 -0.98,1.74 -1.2,3.19 -0.21,1.45 -0.32,2.88 -0.32,4.29 m 10.11,-0.3 c 0,-1.89 0.28,-3.51 0.85,-4.88 0.57,-1.36 1.33,-2.38 2.27,-3.05 0.73,-0.53 1.49,-0.79 2.27,-0.79 1.27,0 2.41,0.65 3.42,1.94 1.26,1.6 1.89,3.78 1.89,6.52 0,1.92 -0.28,3.55 -0.83,4.89 -0.55,1.34 -1.26,2.32 -2.12,2.92 -0.86,0.61 -1.69,0.91 -2.48,0.91 -1.58,0 -2.89,-0.93 -3.94,-2.8 -0.89,-1.57 -1.33,-3.46 -1.33,-5.67 m 2.39,0.3 c 0,2.28 0.28,4.14 0.84,5.58 0.46,1.21 1.16,1.82 2.08,1.82 0.44,0 0.89,-0.2 1.37,-0.59 0.47,-0.39 0.83,-1.06 1.07,-1.98 0.37,-1.4 0.56,-3.37 0.56,-5.92 0,-1.89 -0.2,-3.46 -0.59,-4.72 -0.29,-0.94 -0.67,-1.6 -1.13,-1.99 -0.33,-0.27 -0.74,-0.4 -1.21,-0.4 -0.55,0 -1.05,0.25 -1.48,0.75 -0.59,0.67 -0.98,1.74 -1.2,3.19 -0.21,1.45 -0.32,2.88 -0.32,4.29 m 20.84,1.77 0,1.73 -2.22,0 0,4.37 -2.01,0 0,-4.37 -7.01,0 0,-1.56 7.68,-10.96 1.34,0 0,10.79 2.22,0 m -4.24,0 0,-8.22 -5.81,8.22 5.81,0"
           id="path89"
           inkscape:connector-curvature="0"
           style="fill:#000000;fill-opacity:1;stroke:none" />
        <path
           d="m 41.44,99.9 c 0,-1.89 0.28,-3.51 0.85,-4.88 0.57,-1.36 1.33,-2.38 2.27,-3.05 0.73,-0.53 1.49,-0.79 2.27,-0.79 1.27,0 2.41,0.65 3.42,1.94 1.26,1.6 1.89,3.78 1.89,6.52 0,1.92 -0.28,3.55 -0.83,4.89 -0.55,1.34 -1.26,2.32 -2.12,2.92 -0.86,0.61 -1.69,0.91 -2.48,0.91 -1.58,0 -2.89,-0.93 -3.94,-2.8 -0.89,-1.57 -1.33,-3.46 -1.33,-5.67 m 2.39,0.3 c 0,2.28 0.28,4.14 0.84,5.58 0.46,1.21 1.16,1.82 2.08,1.82 0.44,0 0.89,-0.2 1.37,-0.59 0.47,-0.39 0.83,-1.06 1.07,-1.98 0.37,-1.4 0.56,-3.37 0.56,-5.92 0,-1.89 -0.2,-3.46 -0.59,-4.72 -0.29,-0.94 -0.67,-1.6 -1.13,-1.99 -0.33,-0.27 -0.74,-0.4 -1.21,-0.4 -0.55,0 -1.05,0.25 -1.48,0.75 -0.59,0.67 -0.98,1.74 -1.2,3.19 -0.21,1.45 -0.32,2.88 -0.32,4.29 m 12.33,5.5 c 0.38,0 0.7,0.13 0.96,0.4 0.26,0.26 0.39,0.58 0.39,0.96 0,0.37 -0.13,0.69 -0.4,0.96 -0.26,0.26 -0.58,0.4 -0.96,0.4 -0.37,0 -0.69,-0.13 -0.96,-0.4 -0.26,-0.26 -0.4,-0.58 -0.4,-0.96 0,-0.38 0.13,-0.71 0.4,-0.97 0.26,-0.26 0.58,-0.39 0.96,-0.39 m 4.08,-5.81 c 0,-1.89 0.28,-3.51 0.85,-4.88 0.57,-1.36 1.33,-2.38 2.27,-3.05 0.73,-0.53 1.49,-0.79 2.27,-0.79 1.27,0 2.41,0.65 3.42,1.94 1.26,1.6 1.89,3.78 1.89,6.52 0,1.92 -0.28,3.55 -0.83,4.89 -0.55,1.34 -1.26,2.32 -2.12,2.92 -0.86,0.61 -1.69,0.91 -2.48,0.91 -1.58,0 -2.89,-0.93 -3.94,-2.8 -0.89,-1.57 -1.33,-3.46 -1.33,-5.67 m 2.39,0.3 c 0,2.28 0.28,4.14 0.84,5.58 0.46,1.21 1.16,1.82 2.08,1.82 0.44,0 0.89,-0.2 1.37,-0.59 0.47,-0.39 0.83,-1.06 1.07,-1.98 0.37,-1.4 0.56,-3.37 0.56,-5.92 0,-1.89 -0.2,-3.46 -0.59,-4.72 C 67.65,93.45 67.27,92.79 66.81,92.4 66.48,92.13 66.07,92 65.6,92 c -0.55,0 -1.05,0.25 -1.48,0.75 -0.59,0.67 -0.98,1.74 -1.2,3.19 -0.21,1.45 -0.32,2.88 -0.32,4.29 m 10.11,-0.3 c 0,-1.89 0.28,-3.51 0.85,-4.88 0.57,-1.36 1.33,-2.38 2.27,-3.05 0.73,-0.53 1.49,-0.79 2.27,-0.79 1.27,0 2.41,0.65 3.42,1.94 1.26,1.6 1.89,3.78 1.89,6.52 0,1.92 -0.28,3.55 -0.83,4.89 -0.55,1.34 -1.26,2.32 -2.12,2.92 -0.86,0.61 -1.69,0.91 -2.48,0.91 -1.58,0 -2.89,-0.93 -3.94,-2.8 -0.89,-1.57 -1.33,-3.46 -1.33,-5.67 m 2.39,0.3 c 0,2.28 0.28,4.14 0.84,5.58 0.46,1.21 1.16,1.82 2.08,1.82 0.44,0 0.89,-0.2 1.37,-0.59 0.47,-0.39 0.83,-1.06 1.07,-1.98 0.37,-1.4 0.56,-3.37 0.56,-5.92 0,-1.89 -0.2,-3.46 -0.59,-4.72 -0.29,-0.94 -0.67,-1.6 -1.13,-1.99 -0.33,-0.27 -0.74,-0.4 -1.21,-0.4 -0.55,0 -1.05,0.25 -1.48,0.75 -0.59,0.67 -0.98,1.74 -1.2,3.19 -0.21,1.45 -0.32,2.88 -0.32,4.29 m 20.06,-8.68 -0.95,2.07 -4.98,0 -1.09,2.22 c 2.16,0.32 3.87,1.12 5.13,2.4 1.08,1.11 1.62,2.41 1.62,3.91 0,0.87 -0.18,1.68 -0.53,2.42 -0.35,0.74 -0.8,1.37 -1.34,1.89 -0.54,0.52 -1.14,0.94 -1.79,1.26 -0.94,0.45 -1.9,0.67 -2.88,0.67 -0.99,0 -1.71,-0.17 -2.17,-0.51 -0.45,-0.34 -0.68,-0.71 -0.68,-1.12 0,-0.23 0.09,-0.43 0.28,-0.6 0.19,-0.17 0.42,-0.26 0.71,-0.26 0.21,0 0.4,0.03 0.56,0.1 0.16,0.07 0.43,0.23 0.81,0.5 0.61,0.42 1.23,0.63 1.86,0.63 0.95,0 1.79,-0.36 2.51,-1.08 0.72,-0.72 1.08,-1.6 1.08,-2.63 0,-1 -0.32,-1.93 -0.96,-2.8 -0.64,-0.87 -1.53,-1.54 -2.66,-2.01 -0.89,-0.37 -2.1,-0.58 -3.63,-0.64 l 3.17,-6.43 5.93,0"
           id="path91"
           inkscape:connector-curvature="0"
           style="fill:#000000;fill-opacity:1;stroke:none" />
      </g>
      <g
         id="g93"
         style="fill:none;stroke-width:0.62;stroke-linecap:butt">
        <path
           d="m 103.14,462.36 409.01,0"
           id="path95"
           inkscape:connector-curvature="0" />
      </g>
      <g
         id="g97"
         style="fill:none;stroke-width:1.25;stroke-linecap:butt">
        <path
           d="m 103.72,462.36 0,-7.5 m 9.51,7.5 0,-7.5 m 64.47,7.5 0,-7.5 m 32.74,7.5 0,-7.5 m 23.22,7.5 0,-7.5 m 18.02,7.5 0,-7.5 m 14.72,7.5 0,-7.5 m 12.45,7.5 0,-7.5 m 10.78,7.5 0,-7.5 m 9.51,7.5 0,-7.5 m 64.47,7.5 0,-7.5 m 32.74,7.5 0,-7.5 m 23.23,7.5 0,-7.5 m 18.01,7.5 0,-7.5 m 14.72,7.5 0,-7.5 m 12.45,7.5 0,-7.5 m 10.78,7.5 0,-7.5 m 9.51,7.5 0,-7.5"
           id="path99"
           inkscape:connector-curvature="0" />
      </g>
      <g
         id="g101"
         style="fill:none;stroke-width:2.5;stroke-linecap:butt">
        <path
           d="m 121.73,462.36 0,-12.5 m 185.92,12.5 0,-12.5 m 185.91,12.5 0,-12.5"
           id="path103"
           inkscape:connector-curvature="0" />
      </g>
      <g
         id="g105"
         style="fill:none;stroke-width:0.62;stroke-linecap:butt">
        <path
           d="m 103.14,53.35 409.01,0"
           id="path107"
           inkscape:connector-curvature="0" />
      </g>
      <g
         id="g109"
         style="fill:none;stroke-width:1.25;stroke-linecap:butt">
        <path
           d="m 103.72,53.35 0,7.5 m 9.51,-7.5 0,7.5 m 64.47,-7.5 0,7.5 m 32.74,-7.5 0,7.5 m 23.22,-7.5 0,7.5 m 18.02,-7.5 0,7.5 m 14.72,-7.5 0,7.5 m 12.45,-7.5 0,7.5 m 10.78,-7.5 0,7.5 m 9.51,-7.5 0,7.5 m 64.47,-7.5 0,7.5 m 32.74,-7.5 0,7.5 m 23.23,-7.5 0,7.5 m 18.01,-7.5 0,7.5 m 14.72,-7.5 0,7.5 m 12.45,-7.5 0,7.5 m 10.78,-7.5 0,7.5 m 9.51,-7.5 0,7.5"
           id="path111"
           inkscape:connector-curvature="0" />
      </g>
      <g
         id="g113"
         style="fill:none;stroke-width:2.5;stroke-linecap:butt">
        <path
           d="m 121.73,53.35 0,12.5 m 185.92,-12.5 0,12.5 m 185.91,-12.5 0,12.5"
           id="path115"
           inkscape:connector-curvature="0" />
      </g>
      <g
         id="g117"
         style="fill:none;stroke-width:1">
        <path
           d="m 285.27,506.1 -13.6,19.44 8.48,0 c 1.3,0 2.3,-0.28 3,-0.85 0.7,-0.57 1.32,-1.72 1.85,-3.46 l 0.5,0.09 -0.98,5.48 -16.85,0 0,-0.56 13.27,-18.89 -6.62,0 c -1.1,0 -1.9,0.12 -2.39,0.36 -0.49,0.24 -0.87,0.58 -1.13,1.04 -0.26,0.45 -0.5,1.3 -0.71,2.54 l -0.58,0 0.43,-5.17 15.3,0 m 18.2,26.89 -6.71,0 0,-27.36 6.71,0 0,1.21 -4.43,0 0,24.96 4.43,0 0,1.19 m 19.1,-26.89 -13.6,19.44 8.48,0 c 1.3,0 2.3,-0.28 3,-0.85 0.7,-0.57 1.32,-1.72 1.85,-3.46 l 0.5,0.09 -0.98,5.48 -16.85,0 0,-0.56 13.27,-18.89 -6.62,0 c -1.1,0 -1.9,0.12 -2.39,0.36 -0.49,0.24 -0.87,0.58 -1.13,1.04 -0.26,0.45 -0.5,1.3 -0.71,2.54 l -0.58,0 0.43,-5.17 15.3,0"
           id="path119"
           inkscape:connector-curvature="0"
           style="fill:#000000;fill-opacity:1;stroke:none" />
        <path
           d="m 337.21,525.24 c 0,1.16 -0.34,2.18 -1.02,3.06 -0.68,0.87 -1.5,1.52 -2.47,1.92 -0.97,0.41 -1.98,0.61 -3.05,0.61 -0.8,0 -1.58,-0.12 -2.35,-0.37 -0.77,-0.24 -1.47,-0.59 -2.1,-1.05 -0.63,-0.46 -1.14,-1.05 -1.52,-1.77 -0.38,-0.72 -0.58,-1.52 -0.58,-2.4 0,-1.16 0.33,-2.18 0.99,-3.06 0.66,-0.87 1.48,-1.52 2.46,-1.92 0.98,-0.41 2.01,-0.61 3.1,-0.61 0.79,0 1.56,0.12 2.32,0.37 0.76,0.24 1.46,0.59 2.09,1.04 0.63,0.45 1.15,1.04 1.54,1.76 0.39,0.72 0.59,1.53 0.59,2.42 m -3.26,3.18 c 0.91,-3.37 0.91,-5.5 0,-6.37 -0.91,-0.87 -2,-1.31 -3.28,-1.31 -1.29,0 -2.39,0.44 -3.3,1.31 -0.91,0.88 -1.36,1.94 -1.36,3.19 0,1.23 0.45,2.29 1.36,3.17 0.91,0.89 2.01,1.33 3.3,1.33 1.28,0 2.37,-0.44 3.28,-1.32 m -0.66,-3.18 c 0,0.7 -0.26,1.28 -0.78,1.75 -0.52,0.46 -1.13,0.69 -1.84,0.69 -0.74,0 -1.37,-0.23 -1.87,-0.68 -0.5,-0.46 -0.75,-1.04 -0.75,-1.75 0,-0.74 0.25,-1.34 0.75,-1.8 0.5,-0.46 1.12,-0.69 1.87,-0.69 0.71,0 1.32,0.23 1.84,0.7 0.52,0.47 0.78,1.07 0.78,1.79 m -1.44,0 c 0,-0.46 -0.1,-0.85 -0.3,-1.15 -0.2,-0.31 -0.49,-0.46 -0.87,-0.46 -0.4,0 -0.69,0.15 -0.88,0.46 -0.19,0.31 -0.29,0.69 -0.29,1.15 0,0.46 0.1,0.86 0.3,1.18 0.2,0.32 0.49,0.49 0.87,0.49 0.38,0 0.68,-0.17 0.87,-0.5 0.2,-0.33 0.3,-0.72 0.3,-1.17"
           id="path121"
           inkscape:connector-curvature="0"
           style="fill:#000000;fill-opacity:1;stroke:none" />
        <path
           d="m 338.74,505.62 6.71,0 0,27.37 -6.71,0 0,-1.21 4.42,0 0,-24.96 -4.42,0 0,-1.21"
           id="path123"
           inkscape:connector-curvature="0"
           style="fill:#000000;fill-opacity:1;stroke:none" />
        <path
           d="m 103.8,479.7 c 0,-1.61 0.24,-2.99 0.73,-4.15 0.48,-1.16 1.13,-2.02 1.93,-2.59 0.62,-0.45 1.27,-0.67 1.93,-0.67 1.08,0 2.05,0.55 2.9,1.65 1.07,1.36 1.61,3.21 1.61,5.54 0,1.63 -0.24,3.02 -0.71,4.16 -0.47,1.14 -1.07,1.97 -1.8,2.48 -0.73,0.52 -1.43,0.77 -2.11,0.77 -1.34,0 -2.46,-0.79 -3.35,-2.37 -0.75,-1.34 -1.13,-2.94 -1.13,-4.82 m 2.03,0.26 c 0,1.94 0.24,3.52 0.72,4.74 0.39,1.03 0.98,1.55 1.76,1.55 0.37,0 0.76,-0.17 1.16,-0.5 0.4,-0.34 0.71,-0.9 0.91,-1.69 0.32,-1.19 0.48,-2.87 0.48,-5.03 0,-1.6 -0.17,-2.94 -0.5,-4.02 -0.25,-0.79 -0.57,-1.36 -0.97,-1.69 -0.28,-0.23 -0.63,-0.34 -1.03,-0.34 -0.47,0 -0.89,0.21 -1.26,0.63 -0.5,0.57 -0.84,1.48 -1.02,2.71 -0.18,1.23 -0.27,2.45 -0.27,3.64 m 10.55,4.68 c 0.32,0 0.6,0.11 0.82,0.34 0.22,0.22 0.33,0.5 0.33,0.81 0,0.32 -0.11,0.59 -0.34,0.81 -0.22,0.22 -0.5,0.34 -0.81,0.34 -0.32,0 -0.59,-0.11 -0.81,-0.34 -0.22,-0.22 -0.34,-0.5 -0.34,-0.81 0,-0.32 0.11,-0.6 0.34,-0.82 0.22,-0.22 0.5,-0.33 0.81,-0.33 m 3.41,-4.94 c 0,-1.61 0.24,-2.99 0.73,-4.15 0.48,-1.16 1.13,-2.02 1.93,-2.59 0.62,-0.45 1.27,-0.67 1.93,-0.67 1.08,0 2.05,0.55 2.9,1.65 1.07,1.36 1.61,3.21 1.61,5.54 0,1.63 -0.24,3.02 -0.71,4.16 -0.47,1.14 -1.07,1.97 -1.8,2.48 -0.73,0.52 -1.43,0.77 -2.11,0.77 -1.34,0 -2.46,-0.79 -3.35,-2.37 -0.75,-1.34 -1.13,-2.94 -1.13,-4.82 m 2.03,0.26 c 0,1.94 0.24,3.52 0.72,4.74 0.39,1.03 0.98,1.55 1.76,1.55 0.37,0 0.76,-0.17 1.16,-0.5 0.4,-0.34 0.71,-0.9 0.91,-1.69 0.32,-1.19 0.48,-2.87 0.48,-5.03 0,-1.6 -0.17,-2.94 -0.5,-4.02 -0.25,-0.79 -0.57,-1.36 -0.97,-1.69 -0.28,-0.23 -0.63,-0.34 -1.03,-0.34 -0.47,0 -0.89,0.21 -1.26,0.63 -0.5,0.57 -0.84,1.48 -1.02,2.71 -0.18,1.23 -0.27,2.45 -0.27,3.64 m 10.39,-6 3.42,-1.67 0.34,0 0,11.88 c 0,0.79 0.03,1.28 0.1,1.47 0.07,0.19 0.2,0.34 0.41,0.45 0.21,0.1 0.63,0.16 1.27,0.18 l 0,0.38 -5.29,0 0,-0.38 c 0.66,-0.01 1.09,-0.07 1.29,-0.17 0.19,-0.1 0.33,-0.24 0.4,-0.4 0.08,-0.17 0.11,-0.68 0.11,-1.52 l 0,-7.6 c 0,-1.02 -0.03,-1.68 -0.1,-1.97 -0.05,-0.22 -0.14,-0.38 -0.26,-0.49 -0.13,-0.1 -0.28,-0.16 -0.46,-0.16 -0.26,0 -0.61,0.11 -1.07,0.32 l -0.15,-0.32"
           id="path125"
           inkscape:connector-curvature="0"
           style="fill:#000000;fill-opacity:1;stroke:none" />
        <path
           d="m 295.06,479.7 c 0,-1.61 0.24,-2.99 0.73,-4.15 0.48,-1.16 1.13,-2.02 1.93,-2.59 0.62,-0.45 1.27,-0.67 1.93,-0.67 1.08,0 2.05,0.55 2.9,1.65 1.07,1.36 1.61,3.21 1.61,5.54 0,1.63 -0.24,3.02 -0.71,4.16 -0.47,1.14 -1.07,1.97 -1.8,2.48 -0.73,0.52 -1.43,0.77 -2.11,0.77 -1.34,0 -2.46,-0.79 -3.35,-2.37 -0.75,-1.34 -1.13,-2.94 -1.13,-4.82 m 2.03,0.26 c 0,1.94 0.24,3.52 0.72,4.74 0.39,1.03 0.98,1.55 1.76,1.55 0.37,0 0.76,-0.17 1.16,-0.5 0.4,-0.34 0.71,-0.9 0.91,-1.69 0.32,-1.19 0.48,-2.87 0.48,-5.03 0,-1.6 -0.17,-2.94 -0.5,-4.02 -0.25,-0.79 -0.57,-1.36 -0.97,-1.69 -0.28,-0.23 -0.63,-0.34 -1.03,-0.34 -0.47,0 -0.89,0.21 -1.26,0.63 -0.5,0.57 -0.84,1.48 -1.02,2.71 -0.18,1.23 -0.27,2.45 -0.27,3.64 m 10.55,4.68 c 0.32,0 0.6,0.11 0.82,0.34 0.22,0.22 0.33,0.5 0.33,0.81 0,0.32 -0.11,0.59 -0.34,0.81 -0.22,0.22 -0.5,0.34 -0.81,0.34 -0.32,0 -0.59,-0.11 -0.81,-0.34 -0.22,-0.22 -0.34,-0.5 -0.34,-0.81 0,-0.32 0.11,-0.6 0.34,-0.82 0.22,-0.22 0.5,-0.33 0.81,-0.33 m 5.13,-10.68 3.42,-1.67 0.34,0 0,11.88 c 0,0.79 0.03,1.28 0.1,1.47 0.07,0.19 0.2,0.34 0.41,0.45 0.21,0.1 0.63,0.16 1.27,0.18 l 0,0.38 -5.29,0 0,-0.38 c 0.66,-0.01 1.09,-0.07 1.29,-0.17 0.19,-0.1 0.33,-0.24 0.4,-0.4 0.08,-0.17 0.11,-0.68 0.11,-1.52 l 0,-7.6 c 0,-1.02 -0.03,-1.68 -0.1,-1.97 -0.05,-0.22 -0.14,-0.38 -0.26,-0.49 -0.13,-0.1 -0.28,-0.16 -0.46,-0.16 -0.26,0 -0.61,0.11 -1.07,0.32 l -0.15,-0.32"
           id="path127"
           inkscape:connector-curvature="0"
           style="fill:#000000;fill-opacity:1;stroke:none" />
        <path
           d="m 490.7,473.97 3.42,-1.67 0.34,0 0,11.88 c 0,0.79 0.03,1.28 0.1,1.47 0.07,0.19 0.2,0.34 0.41,0.45 0.21,0.1 0.63,0.16 1.27,0.18 l 0,0.38 -5.29,0 0,-0.38 c 0.66,-0.01 1.09,-0.07 1.29,-0.17 0.19,-0.1 0.33,-0.24 0.4,-0.4 0.08,-0.17 0.11,-0.68 0.11,-1.52 l 0,-7.6 c 0,-1.02 -0.03,-1.68 -0.1,-1.97 -0.05,-0.22 -0.14,-0.38 -0.26,-0.49 -0.13,-0.1 -0.28,-0.16 -0.46,-0.16 -0.26,0 -0.61,0.11 -1.07,0.32 l -0.15,-0.32"
           id="path129"
           inkscape:connector-curvature="0"
           style="fill:#000000;fill-opacity:1;stroke:none" />
      </g>
    </g>
  </g>
</svg>
